<?xml version="1.0" encoding="utf-8"?>
<!-- Generator: Adobe Illustrator 24.3.0, SVG Export Plug-In . SVG Version: 6.00 Build 0)  -->
<svg version="1.1"
	 id="svg3077" xmlns:cc="http://creativecommons.org/ns#" xmlns:dc="http://purl.org/dc/elements/1.1/" xmlns:rdf="http://www.w3.org/1999/02/22-rdf-syntax-ns#" xmlns:svg="http://www.w3.org/2000/svg"
	 xmlns="http://www.w3.org/2000/svg" xmlns:xlink="http://www.w3.org/1999/xlink" x="0px" y="0px" viewBox="0 0 841.9 595.3"
	 style="enable-background:new 0 0 841.9 595.3;" xml:space="preserve">
<style type="text/css">
	.st0{enable-background:new    ;}
	.st1{fill:#2D0E75;}
</style>
<g class="st0">
	<path class="st1" d="M38.7,315.4c4.3,0,8.1-0.9,12-2.6s7-4.1,9.8-7.2l7.2,7.4c-3.5,3.9-8,7-13.1,9.3s-10.6,3.5-16.1,3.5
		c-5.4,0-10.4-0.9-15.2-3c-4.6-2-8.9-4.6-12.2-8c-3.5-3.3-6.1-7.4-8.1-12c-2-4.6-3-9.6-3-14.8c0-5.4,0.9-10.4,3-14.8
		c2-4.6,4.6-8.5,8.1-12c3.5-3.3,7.6-6.1,12.2-8c4.6-2,9.8-3,15.2-3c5.7,0,11.3,1.1,16.5,3.5c5.4,2.2,9.6,5.4,13,9.3l-7.4,7.6
		c-2.8-3.1-6.1-5.7-10-7.4c-3.9-1.7-8-2.6-12.2-2.6c-3.9,0-7.4,0.7-10.7,2c-3.3,1.5-6.3,3.3-8.7,5.9c-2.4,2.4-4.3,5.4-5.7,8.9
		c-1.5,3.3-2,7-2,10.9s0.7,7.6,2,10.9c1.3,3.3,3.3,6.3,5.7,8.7s5.4,4.4,8.7,5.9C31.1,314.7,34.8,315.4,38.7,315.4z"/>
	<path class="st1" d="M79.2,324.5V251h10.9v31.5h39.1V251h10.9v73.5h-10.9v-32H90.2v32H79.2L79.2,324.5z"/>
	<path class="st1" d="M155.7,324.5V251h10.9v73.5H155.7L155.7,324.5z"/>
	<path class="st1" d="M219.9,319.3l-27.2-54.6v59.8h-10.4V251H197l23.1,46.8l23-46.8h14.6v73.5h-10.4v-60L219.9,319.3z"/>
	<path class="st1" d="M273.3,324.5V251h54.2v9.6h-43.1v22h28.3v9.4h-28.3v22.8h43.5v9.6H273.3L273.3,324.5z"/>
	<path class="st1" d="M401.7,324.5v-5c-2.2,1.9-4.8,3.3-7.6,4.3c-2.8,0.9-5.7,1.5-8.9,1.5c-3.7,0-7.2-0.7-10.6-2.2
		c-3.3-1.5-6.1-3.3-8.5-5.9c-2.4-2.4-4.3-5.4-5.7-8.7c-1.5-3.3-2-7-2-10.9s0.7-7.4,2-10.7c1.5-3.3,3.3-6.3,5.7-8.7
		c2.4-2.4,5.4-4.4,8.7-5.9c3.3-1.5,6.9-2.2,10.7-2.2c3,0,5.7,0.4,8.5,1.3c2.8,0.9,5.2,2.2,7.6,3.9V251l10.6-2.2v75.7H401.7
		L401.7,324.5z M368.6,297.6c0,5.2,1.7,9.6,5.2,13.1c3.5,3.5,7.8,5.4,13,5.4c3,0,5.7-0.6,8.3-1.7c2.6-1.1,4.6-2.8,6.5-4.6v-24.3
		c-1.7-2-3.9-3.5-6.5-4.6c-2.6-1.1-5.4-1.7-8.3-1.7c-5.2,0-9.4,1.7-13,5.2C370.5,288,368.6,292.3,368.6,297.6z"/>
	<path class="st1" d="M471.4,318.4c-3.1,2.4-6.3,4.1-9.6,5.4c-3.3,1.1-7,1.7-10.9,1.7c-3.9,0-7.6-0.7-10.9-2.2
		c-3.5-1.5-6.5-3.3-8.9-5.9c-2.6-2.4-4.4-5.4-5.9-8.7c-1.5-3.3-2.2-7-2.2-10.9s0.7-7.4,2-10.7c1.5-3.3,3.3-6.3,5.7-8.7
		c2.4-2.4,5.2-4.4,8.5-5.9c3.3-1.5,6.9-2.2,10.6-2.2s7,0.7,10.2,2.2c3.1,1.5,5.9,3.3,8.1,5.9c2.2,2.4,4.1,5.4,5.4,8.9
		c1.3,3.5,2,7,2,10.9v3h-42.2c0.7,4.4,2.8,8.1,6.1,10.9c3.3,3,7.4,4.3,12,4.3c2.6,0,5-0.4,7.4-1.3c2.4-0.9,4.4-2,6.1-3.5
		L471.4,318.4z M449.1,279.1c-4.1,0-7.4,1.3-10.4,4.1c-3,2.6-4.8,6.1-5.6,10.4h31.7c-0.7-4.1-2.6-7.4-5.6-10.2
		C456.4,280.4,453,279.1,449.1,279.1z"/>
	<path class="st1" d="M500.8,324.5l-23.1-53.3h11.5l16.7,40l16.7-40h11.3l-23.1,53.3H500.8z"/>
	<path class="st1" d="M585,318.4c-3.1,2.4-6.3,4.1-9.6,5.4c-3.3,1.1-7,1.7-10.9,1.7s-7.6-0.7-10.9-2.2c-3.5-1.5-6.5-3.3-8.9-5.9
		s-4.4-5.4-5.9-8.7c-1.5-3.3-2.2-7-2.2-10.9s0.7-7.4,2-10.7c1.5-3.3,3.3-6.3,5.7-8.7c2.4-2.4,5.2-4.4,8.5-5.9
		c3.3-1.5,6.9-2.2,10.6-2.2c3.7,0,7,0.7,10.2,2.2c3.1,1.5,5.9,3.3,8.1,5.9c2.2,2.4,4.1,5.4,5.4,8.9c1.3,3.5,2,7,2,10.9v3h-42.2
		c0.7,4.4,2.8,8.1,6.1,10.9c3.3,3,7.4,4.3,12,4.3c2.6,0,5-0.4,7.4-1.3c2.4-0.9,4.4-2,6.1-3.5L585,318.4z M562.8,279.1
		c-4.1,0-7.4,1.3-10.4,4.1c-3,2.6-4.8,6.1-5.6,10.4h31.7c-0.7-4.1-2.6-7.4-5.6-10.2C570.2,280.4,566.7,279.1,562.8,279.1z"/>
	<path class="st1" d="M610,248.8v75.7h-10.6V251L610,248.8z"/>
	<path class="st1" d="M620.4,297.6c0-3.9,0.7-7.4,2.2-10.9c1.5-3.3,3.5-6.3,5.9-8.9c2.4-2.6,5.4-4.4,8.9-5.9c3.3-1.5,7-2.2,10.9-2.2
		s7.4,0.7,10.9,2.2c3.3,1.5,6.3,3.3,8.9,5.9c2.4,2.4,4.4,5.4,5.9,8.9c1.3,3.5,1.9,7.2,1.9,10.9c0,3.9-0.7,7.6-2.2,10.9
		c-1.5,3.3-3.3,6.3-5.9,8.9c-2.4,2.4-5.4,4.4-8.9,5.9c-3.3,1.5-7,2.2-10.9,2.2s-7.4-0.7-10.9-2.2c-3.3-1.5-6.3-3.3-8.9-5.9
		c-2.6-2.4-4.4-5.4-5.9-8.9C621.1,305.2,620.4,301.7,620.4,297.6z M648.2,316.3c4.8,0,8.9-1.9,12.2-5.4c3.3-3.5,5.2-8,5.2-13.1
		s-1.7-9.6-5.2-13.1c-3.3-3.5-7.6-5.4-12.2-5.4c-4.8,0-8.9,1.9-12.4,5.4c-3.5,3.5-5.2,8-5.2,13.1s1.7,9.6,5.2,13.1
		C639.3,314.5,643.3,316.3,648.2,316.3z"/>
	<path class="st1" d="M686.5,346.1V271h10.4v5.2c2.2-2,4.6-3.5,7.4-4.4c2.8-0.9,5.7-1.5,8.9-1.5c3.7,0,7.2,0.7,10.6,2.2
		s6.1,3.3,8.5,5.9s4.3,5.4,5.7,8.7c1.5,3.3,2,7,2,10.7c0,3.7-0.7,7.4-2,10.9c-1.3,3.5-3.3,6.3-5.7,8.7c-2.4,2.4-5.4,4.4-8.7,5.9
		c-3.3,1.5-6.9,2.2-10.7,2.2c-3,0-5.7-0.4-8.5-1.3c-2.8-0.9-5.4-2.2-7.6-3.9v26.1L686.5,346.1L686.5,346.1z M711.8,279.3
		c-3,0-5.7,0.6-8.3,1.7c-2.6,1.1-4.8,2.8-6.5,4.6v24.3c1.7,2,3.9,3.5,6.5,4.6c2.6,1.1,5.4,1.7,8.5,1.7c5.2,0,9.4-1.7,13-5.2
		c3.5-3.5,5.2-7.8,5.2-13.1s-1.7-9.6-5.2-13.1C721.1,281.2,716.8,279.3,711.8,279.3z"/>
	<path class="st1" d="M797.2,318.4c-3.1,2.4-6.3,4.1-9.6,5.4c-3.3,1.1-7,1.7-10.9,1.7c-3.9,0-7.6-0.7-10.9-2.2
		c-3.5-1.5-6.5-3.3-8.9-5.9s-4.4-5.4-5.9-8.7s-2.2-7-2.2-10.9s0.7-7.4,2-10.7c1.5-3.3,3.3-6.3,5.7-8.7c2.4-2.4,5.2-4.4,8.5-5.9
		c3.3-1.5,6.9-2.2,10.6-2.2c3.7,0,7,0.7,10.2,2.2c3.1,1.5,5.9,3.3,8.1,5.9c2.2,2.4,4.1,5.4,5.4,8.9c1.3,3.5,2,7,2,10.9v3h-42.2
		c0.7,4.4,2.8,8.1,6.1,10.9c3.3,3,7.4,4.3,12,4.3c2.6,0,5-0.4,7.4-1.3c2.4-0.7,4.4-2,6.1-3.5L797.2,318.4z M775,279.1
		c-4.1,0-7.4,1.3-10.4,4.1c-3,2.6-4.8,6.1-5.6,10.4h31.7c-0.7-4.1-2.6-7.4-5.6-10.2C782.2,280.4,778.9,279.1,775,279.1z"/>
	<path class="st1" d="M811.5,324.5v-53.3H822v6.9c1.7-2.6,3.7-4.6,6.1-5.9c2.6-1.3,5.4-2,8.5-2c1.1,0,2,0,3,0.2
		c0.9,0.2,1.7,0.4,2.4,0.6v9.4c-0.9-0.4-2-0.6-3-0.9c-1.1-0.2-2-0.4-3.1-0.4c-3.1,0-5.9,0.9-8.3,2.4c-2.4,1.7-4.3,4.1-5.6,7.2v35.7
		L811.5,324.5L811.5,324.5z"/>
</g>
</svg>
