<?xml version="1.0" encoding="utf-8"?>
<!-- Generator: Adobe Illustrator 24.3.0, SVG Export Plug-In . SVG Version: 6.00 Build 0)  -->
<svg version="1.1"
	 id="svg3077" xmlns:cc="http://creativecommons.org/ns#" xmlns:dc="http://purl.org/dc/elements/1.1/" xmlns:rdf="http://www.w3.org/1999/02/22-rdf-syntax-ns#" xmlns:svg="http://www.w3.org/2000/svg"
	 xmlns="http://www.w3.org/2000/svg" xmlns:xlink="http://www.w3.org/1999/xlink" x="0px" y="0px" viewBox="0 0 148 22"
	 style="enable-background:new 0 0 148 22;" xml:space="preserve">
<style type="text/css">
	.st0{fill:#FFFFFF;}
</style>
<g>
	<path class="st0" d="M7,14.8c0.8,0,1.4-0.2,2.1-0.5c0.7-0.3,1.2-0.7,1.7-1.3l1.3,1.3c-0.6,0.7-1.4,1.2-2.3,1.6
		c-0.9,0.4-1.9,0.6-2.8,0.6S5.2,16.3,4.3,16c-0.8-0.4-1.6-0.8-2.1-1.4c-0.6-0.6-1.1-1.3-1.4-2.1S0.2,10.9,0.2,10s0.2-1.8,0.5-2.6
		c0.4-0.8,0.8-1.5,1.4-2.1s1.3-1.1,2.1-1.4C5.1,3.6,6,3.4,7,3.4S9,3.6,9.9,4s1.7,0.9,2.3,1.6L10.8,7C10.3,6.5,9.7,6,9,5.7
		C8.4,5.4,7.7,5.2,6.9,5.2C6.2,5.2,5.6,5.3,5,5.6c-0.5,0.2-1,0.6-1.5,1c-0.4,0.4-0.7,1-1,1.6s-0.4,1.2-0.4,1.9s0.1,1.3,0.4,1.9
		s0.6,1.1,1,1.5s0.9,0.8,1.5,1C5.7,14.7,6.3,14.8,7,14.8z"/>
	<path class="st0" d="M14.1,16.4V3.5H16V9h6.9V3.5h1.9v12.9h-1.9v-5.6H16v5.6H14.1L14.1,16.4z"/>
	<path class="st0" d="M27.5,16.4V3.5h1.9v12.9H27.5L27.5,16.4z"/>
	<path class="st0" d="M38.7,15.5L34,5.9v10.5h-1.8V3.5h2.6l4,8.2l4-8.2h2.6v12.9h-1.8V5.9L38.7,15.5z"/>
	<path class="st0" d="M48.1,16.4V3.5h9.5v1.7H50v3.9h5v1.6h-5v4h7.6v1.7L48.1,16.4L48.1,16.4z"/>
	<path class="st0" d="M70.6,16.4v-0.9c-0.4,0.3-0.8,0.6-1.3,0.8c-0.5,0.2-1,0.3-1.6,0.3s-1.3-0.1-1.9-0.4c-0.6-0.3-1.1-0.6-1.5-1
		s-0.8-0.9-1-1.5c-0.2-0.7-0.3-1.3-0.3-2s0.1-1.3,0.4-1.9c0.3-0.6,0.6-1.1,1-1.5c0.4-0.4,0.9-0.8,1.5-1c0.6-0.3,1.2-0.4,1.9-0.4
		c0.5,0,1,0.1,1.5,0.2s0.9,0.4,1.3,0.7V3.5l1.9-0.4v13.3H70.6L70.6,16.4z M64.8,11.7c0,0.9,0.3,1.7,0.9,2.3s1.4,0.9,2.3,0.9
		c0.5,0,1-0.1,1.5-0.3s0.8-0.5,1.1-0.8V9.6c-0.3-0.4-0.7-0.6-1.1-0.8c-0.5-0.2-1-0.3-1.5-0.3c-0.9,0-1.6,0.3-2.3,0.9
		C65.1,10,64.8,10.8,64.8,11.7z"/>
	<path class="st0" d="M82.8,15.4c-0.5,0.4-1.1,0.7-1.7,0.9c-0.6,0.2-1.2,0.3-1.9,0.3c-0.7,0-1.3-0.1-1.9-0.4c-0.6-0.3-1.1-0.6-1.6-1
		s-0.8-0.9-1-1.5c-0.3-0.6-0.4-1.2-0.4-1.9s0.1-1.3,0.4-1.9c0.3-0.6,0.6-1.1,1-1.5c0.4-0.4,0.9-0.8,1.5-1C77.8,7,78.4,6.9,79,6.9
		s1.2,0.1,1.8,0.4c0.5,0.3,1,0.6,1.4,1c0.4,0.4,0.7,0.9,0.9,1.6c0.2,0.6,0.4,1.2,0.4,1.9v0.5h-7.4c0.1,0.8,0.5,1.4,1.1,1.9
		s1.3,0.8,2.1,0.8c0.5,0,0.9-0.1,1.3-0.2s0.8-0.4,1.1-0.6L82.8,15.4z M78.9,8.5c-0.7,0-1.3,0.2-1.8,0.7s-0.8,1.1-1,1.8h5.6
		c-0.1-0.7-0.5-1.3-1-1.8S79.6,8.5,78.9,8.5z"/>
	<path class="st0" d="M88,16.4l-4-9.3h2l2.9,7l2.9-7h2l-4,9.3H88z"/>
	<path class="st0" d="M102.7,15.4c-0.5,0.4-1.1,0.7-1.7,0.9c-0.6,0.2-1.2,0.3-1.9,0.3s-1.3-0.1-1.9-0.4c-0.6-0.3-1.1-0.6-1.6-1
		c-0.4-0.5-0.8-0.9-1-1.5c-0.3-0.6-0.4-1.2-0.4-1.9s0.1-1.3,0.4-1.9c0.3-0.6,0.6-1.1,1-1.5c0.4-0.4,0.9-0.8,1.5-1
		C97.7,7,98.3,6.9,99,6.9c0.6,0,1.2,0.1,1.8,0.4c0.5,0.3,1,0.6,1.4,1c0.4,0.4,0.7,0.9,0.9,1.6c0.2,0.6,0.4,1.2,0.4,1.9v0.5h-7.4
		c0.1,0.8,0.5,1.4,1.1,1.9s1.3,0.8,2.1,0.8c0.5,0,0.9-0.1,1.3-0.2c0.4-0.2,0.8-0.4,1.1-0.6L102.7,15.4z M98.9,8.5
		c-0.7,0-1.3,0.2-1.8,0.7s-0.8,1.1-1,1.8h5.6c-0.1-0.7-0.5-1.3-1-1.8S99.5,8.5,98.9,8.5z"/>
	<path class="st0" d="M107.1,3.2v13.3h-1.9v-13L107.1,3.2z"/>
	<path class="st0" d="M109,11.7c0-0.7,0.1-1.3,0.4-1.9c0.3-0.6,0.6-1.1,1-1.6s0.9-0.8,1.6-1c0.6-0.3,1.2-0.4,1.9-0.4
		s1.3,0.1,1.9,0.4s1.1,0.6,1.6,1c0.4,0.4,0.8,0.9,1,1.6c0.2,0.6,0.3,1.3,0.3,1.9c0,0.7-0.1,1.3-0.4,1.9c-0.3,0.6-0.6,1.1-1,1.6
		c-0.4,0.4-0.9,0.8-1.6,1c-0.6,0.3-1.2,0.4-1.9,0.4s-1.3-0.1-1.9-0.4c-0.6-0.3-1.1-0.6-1.6-1s-0.8-0.9-1-1.6
		C109.1,13,109,12.4,109,11.7z M113.8,15c0.8,0,1.6-0.3,2.1-0.9c0.6-0.6,0.9-1.4,0.9-2.3c0-0.9-0.3-1.7-0.9-2.3s-1.3-0.9-2.1-0.9
		c-0.8,0-1.6,0.3-2.2,0.9s-0.9,1.4-0.9,2.3c0,0.9,0.3,1.7,0.9,2.3C112.3,14.7,113,15,113.8,15z"/>
	<path class="st0" d="M120.5,20.2V7h1.8v1c0.4-0.4,0.8-0.6,1.3-0.8c0.5-0.2,1-0.3,1.6-0.3s1.3,0.1,1.9,0.4s1.1,0.6,1.5,1
		c0.4,0.5,0.8,0.9,1,1.5c0.3,0.6,0.4,1.2,0.4,1.9c0,0.6-0.1,1.3-0.4,1.9c-0.2,0.6-0.6,1.1-1,1.5s-0.9,0.8-1.5,1
		c-0.6,0.3-1.2,0.4-1.9,0.4c-0.5,0-1-0.1-1.5-0.2c-0.5-0.2-0.9-0.4-1.3-0.7v4.6L120.5,20.2L120.5,20.2z M125,8.5
		c-0.5,0-1,0.1-1.5,0.3s-0.8,0.5-1.1,0.8v4.3c0.3,0.4,0.7,0.6,1.1,0.8c0.5,0.2,0.9,0.3,1.5,0.3c0.9,0,1.6-0.3,2.3-0.9
		c0.6-0.6,0.9-1.4,0.9-2.3s-0.3-1.7-0.9-2.3C126.6,8.8,125.9,8.5,125,8.5z"/>
	<path class="st0" d="M139.9,15.4c-0.5,0.4-1.1,0.7-1.7,0.9c-0.6,0.2-1.2,0.3-1.9,0.3s-1.3-0.1-1.9-0.4c-0.6-0.3-1.1-0.6-1.6-1
		c-0.4-0.5-0.8-0.9-1-1.5c-0.3-0.6-0.4-1.2-0.4-1.9s0.1-1.3,0.4-1.9c0.3-0.6,0.6-1.1,1-1.5c0.4-0.4,0.9-0.8,1.5-1
		c0.6-0.3,1.2-0.4,1.9-0.4c0.6,0,1.2,0.1,1.8,0.4c0.5,0.3,1,0.6,1.4,1c0.4,0.4,0.7,0.9,0.9,1.6c0.2,0.6,0.4,1.2,0.4,1.9v0.5h-7.4
		c0.1,0.8,0.5,1.4,1.1,1.9s1.3,0.8,2.1,0.8c0.5,0,0.9-0.1,1.3-0.2c0.4-0.1,0.8-0.4,1.1-0.6L139.9,15.4z M136.1,8.5
		c-0.7,0-1.3,0.2-1.8,0.7s-0.8,1.1-1,1.8h5.6c-0.1-0.7-0.5-1.3-1-1.8C137.3,8.7,136.7,8.5,136.1,8.5z"/>
	<path class="st0" d="M142.5,16.4V7.1h1.8v1.2c0.3-0.5,0.6-0.8,1.1-1s0.9-0.4,1.5-0.4c0.2,0,0.4,0,0.5,0c0.2,0,0.3,0.1,0.4,0.1v1.6
		c-0.2-0.1-0.4-0.1-0.5-0.2c-0.2,0-0.4-0.1-0.5-0.1c-0.5,0-1,0.2-1.5,0.4c-0.4,0.3-0.8,0.7-1,1.3v6.3L142.5,16.4L142.5,16.4z"/>
</g>
</svg>
