<?xml version="1.0" encoding="utf-8"?>
<!-- Generator: Adobe Illustrator 24.3.0, SVG Export Plug-In . SVG Version: 6.00 Build 0)  -->
<svg version="1.1"
	 id="svg3077" xmlns:cc="http://creativecommons.org/ns#" xmlns:dc="http://purl.org/dc/elements/1.1/" xmlns:rdf="http://www.w3.org/1999/02/22-rdf-syntax-ns#" xmlns:svg="http://www.w3.org/2000/svg"
	 xmlns="http://www.w3.org/2000/svg" xmlns:xlink="http://www.w3.org/1999/xlink" x="0px" y="0px" viewBox="0 0 148 22"
	 style="enable-background:new 0 0 148 22;" xml:space="preserve">
<style type="text/css">
	.st0{fill:#7767D8;}
	.st1{fill:#F99D27;}
</style>
<g>
	<path class="st1" d="M7,15c0.8,0,1.4-0.2,2.1-0.5c0.7-0.3,1.2-0.7,1.7-1.3l1.3,1.3c-0.6,0.7-1.4,1.2-2.3,1.6
		c-0.9,0.4-1.9,0.6-2.8,0.6c-0.9,0-1.8-0.2-2.7-0.5c-0.8-0.4-1.6-0.8-2.1-1.4c-0.6-0.6-1.1-1.3-1.4-2.1c-0.4-0.8-0.5-1.7-0.5-2.6
		c0-0.9,0.2-1.8,0.5-2.6c0.4-0.8,0.8-1.5,1.4-2.1c0.6-0.6,1.3-1.1,2.1-1.4C5.1,3.7,6,3.5,7,3.5c1,0,2,0.2,2.9,0.6
		c0.9,0.4,1.7,0.9,2.3,1.6l-1.3,1.3c-0.5-0.5-1.1-1-1.8-1.3C8.4,5.5,7.7,5.4,6.9,5.4c-0.7,0-1.3,0.1-1.9,0.4C4.5,6,4,6.3,3.5,6.7
		c-0.4,0.4-0.8,0.9-1,1.6c-0.3,0.6-0.4,1.2-0.4,1.9s0.1,1.3,0.4,1.9c0.2,0.6,0.6,1.1,1,1.5s0.9,0.8,1.5,1C5.7,14.8,6.3,15,7,15z"/>
	<path class="st1" d="M14.1,16.6V3.7H16v5.5h6.9V3.7h1.9v12.9h-1.9V11H16v5.6H14.1L14.1,16.6z"/>
	<path class="st1" d="M27.5,16.6V3.7h1.9v12.9H27.5L27.5,16.6z"/>
	<path class="st1" d="M38.7,15.7L34,6.1v10.5h-1.8V3.7h2.6l4,8.2l4-8.2h2.6v12.9h-1.8V6L38.7,15.7z"/>
	<path class="st1" d="M48.1,16.6V3.7h9.5v1.7h-7.6v3.9h5v1.6h-5v4h7.6v1.7L48.1,16.6L48.1,16.6z"/>
	<path class="st1" d="M70.6,16.6v-0.9c-0.4,0.3-0.8,0.6-1.3,0.8c-0.5,0.2-1,0.3-1.6,0.3c-0.6,0-1.3-0.1-1.9-0.4
		c-0.6-0.3-1.1-0.6-1.5-1c-0.4-0.4-0.8-0.9-1-1.5c-0.3-0.6-0.4-1.2-0.4-1.9s0.1-1.3,0.4-1.9c0.3-0.6,0.6-1.1,1-1.5
		c0.4-0.4,0.9-0.8,1.5-1C66.5,7.2,67.1,7,67.8,7c0.5,0,1,0.1,1.5,0.2c0.5,0.2,0.9,0.4,1.3,0.7V3.7l1.9-0.4v13.3H70.6L70.6,16.6z
		 M64.8,11.9c0,0.9,0.3,1.7,0.9,2.3c0.6,0.6,1.4,0.9,2.3,0.9c0.5,0,1-0.1,1.5-0.3c0.5-0.2,0.8-0.5,1.1-0.8V9.7
		c-0.3-0.4-0.7-0.6-1.1-0.8C69,8.7,68.5,8.6,68,8.6c-0.9,0-1.6,0.3-2.3,0.9C65.1,10.2,64.8,10.9,64.8,11.9z"/>
	<path class="st1" d="M82.8,15.5c-0.5,0.4-1.1,0.7-1.7,0.9c-0.6,0.2-1.2,0.3-1.9,0.3c-0.7,0-1.3-0.1-1.9-0.4c-0.6-0.3-1.1-0.6-1.6-1
		c-0.5-0.4-0.8-0.9-1-1.5c-0.3-0.6-0.4-1.2-0.4-1.9s0.1-1.3,0.4-1.9c0.3-0.6,0.6-1.1,1-1.5c0.4-0.4,0.9-0.8,1.5-1
		c0.6-0.3,1.2-0.4,1.9-0.4c0.6,0,1.2,0.1,1.8,0.4c0.5,0.3,1,0.6,1.4,1c0.4,0.4,0.7,0.9,0.9,1.6c0.2,0.6,0.4,1.2,0.4,1.9v0.5h-7.4
		c0.1,0.8,0.5,1.4,1.1,1.9c0.6,0.5,1.3,0.8,2.1,0.8c0.5,0,0.9-0.1,1.3-0.2c0.4-0.2,0.8-0.4,1.1-0.6L82.8,15.5z M78.9,8.6
		c-0.7,0-1.3,0.2-1.8,0.7c-0.5,0.5-0.8,1.1-1,1.8h5.6c-0.1-0.7-0.5-1.3-1-1.8C80.2,8.8,79.6,8.6,78.9,8.6z"/>
	<path class="st1" d="M88,16.6l-4-9.3h2l2.9,7l2.9-7h2l-4,9.3H88z"/>
	<path class="st1" d="M102.7,15.5c-0.5,0.4-1.1,0.7-1.7,0.9c-0.6,0.2-1.2,0.3-1.9,0.3s-1.3-0.1-1.9-0.4c-0.6-0.3-1.1-0.6-1.6-1
		c-0.4-0.5-0.8-0.9-1-1.5c-0.3-0.6-0.4-1.2-0.4-1.9s0.1-1.3,0.4-1.9c0.3-0.6,0.6-1.1,1-1.5c0.4-0.4,0.9-0.8,1.5-1
		c0.6-0.3,1.2-0.4,1.9-0.4c0.6,0,1.2,0.1,1.8,0.4c0.5,0.3,1,0.6,1.4,1c0.4,0.4,0.7,0.9,0.9,1.6c0.2,0.6,0.4,1.2,0.4,1.9v0.5h-7.4
		c0.1,0.8,0.5,1.4,1.1,1.9c0.6,0.5,1.3,0.8,2.1,0.8c0.5,0,0.9-0.1,1.3-0.2c0.4-0.2,0.8-0.4,1.1-0.6L102.7,15.5z M98.9,8.6
		c-0.7,0-1.3,0.2-1.8,0.7c-0.5,0.5-0.8,1.1-1,1.8h5.6c-0.1-0.7-0.5-1.3-1-1.8C100.2,8.8,99.5,8.6,98.9,8.6z"/>
	<path class="st1" d="M107.1,3.3v13.3h-1.9V3.7L107.1,3.3z"/>
	<path class="st1" d="M109,11.9c0-0.7,0.1-1.3,0.4-1.9c0.3-0.6,0.6-1.1,1-1.6c0.4-0.5,0.9-0.8,1.6-1c0.6-0.3,1.2-0.4,1.9-0.4
		s1.3,0.1,1.9,0.4c0.6,0.3,1.1,0.6,1.6,1c0.4,0.4,0.8,0.9,1,1.6c0.2,0.6,0.3,1.3,0.3,1.9c0,0.7-0.1,1.3-0.4,1.9
		c-0.3,0.6-0.6,1.1-1,1.6c-0.4,0.4-0.9,0.8-1.6,1c-0.6,0.3-1.2,0.4-1.9,0.4s-1.3-0.1-1.9-0.4c-0.6-0.3-1.1-0.6-1.6-1
		c-0.5-0.4-0.8-0.9-1-1.6C109.1,13.2,109,12.6,109,11.9z M113.8,15.1c0.8,0,1.6-0.3,2.1-0.9c0.6-0.6,0.9-1.4,0.9-2.3
		s-0.3-1.7-0.9-2.3c-0.6-0.6-1.3-0.9-2.1-0.9c-0.8,0-1.6,0.3-2.2,0.9c-0.6,0.6-0.9,1.4-0.9,2.3s0.3,1.7,0.9,2.3
		C112.3,14.8,113,15.1,113.8,15.1z"/>
	<path class="st1" d="M120.5,20.4V7.2h1.8v0.9c0.4-0.4,0.8-0.6,1.3-0.8c0.5-0.2,1-0.3,1.6-0.3c0.6,0,1.3,0.1,1.9,0.4
		c0.6,0.3,1.1,0.6,1.5,1s0.8,0.9,1,1.5c0.3,0.6,0.4,1.2,0.4,1.9s-0.1,1.3-0.4,1.9c-0.2,0.6-0.6,1.1-1,1.5c-0.4,0.4-0.9,0.8-1.5,1
		s-1.2,0.4-1.9,0.4c-0.5,0-1-0.1-1.5-0.2c-0.5-0.2-0.9-0.4-1.3-0.7v4.6L120.5,20.4L120.5,20.4z M125,8.6c-0.5,0-1,0.1-1.5,0.3
		c-0.5,0.2-0.8,0.5-1.1,0.8V14c0.3,0.4,0.7,0.6,1.1,0.8s0.9,0.3,1.5,0.3c0.9,0,1.6-0.3,2.3-0.9c0.6-0.6,0.9-1.4,0.9-2.3
		c0-0.9-0.3-1.7-0.9-2.3C126.6,9,125.9,8.6,125,8.6z"/>
	<path class="st1" d="M139.9,15.5c-0.5,0.4-1.1,0.7-1.7,0.9c-0.6,0.2-1.2,0.3-1.9,0.3c-0.7,0-1.3-0.1-1.9-0.4
		c-0.6-0.3-1.1-0.6-1.6-1c-0.4-0.5-0.8-0.9-1-1.5c-0.3-0.6-0.4-1.2-0.4-1.9s0.1-1.3,0.4-1.9c0.3-0.6,0.6-1.1,1-1.5
		c0.4-0.4,0.9-0.8,1.5-1c0.6-0.3,1.2-0.4,1.9-0.4c0.6,0,1.2,0.1,1.8,0.4c0.5,0.3,1,0.6,1.4,1c0.4,0.4,0.7,0.9,0.9,1.6
		c0.2,0.6,0.4,1.2,0.4,1.9v0.5h-7.4c0.1,0.8,0.5,1.4,1.1,1.9c0.6,0.5,1.3,0.8,2.1,0.8c0.5,0,0.9-0.1,1.3-0.2
		c0.4-0.1,0.8-0.4,1.1-0.6L139.9,15.5z M136.1,8.6c-0.7,0-1.3,0.2-1.8,0.7c-0.5,0.5-0.8,1.1-1,1.8h5.6c-0.1-0.7-0.5-1.3-1-1.8
		C137.3,8.8,136.7,8.6,136.1,8.6z"/>
	<path class="st1" d="M142.5,16.6V7.2h1.8v1.2c0.3-0.5,0.6-0.8,1.1-1c0.5-0.2,0.9-0.4,1.5-0.4c0.2,0,0.4,0,0.5,0
		c0.2,0,0.3,0.1,0.4,0.1v1.6c-0.2-0.1-0.4-0.1-0.5-0.2c-0.2,0-0.4-0.1-0.5-0.1c-0.5,0-1,0.2-1.5,0.4c-0.4,0.3-0.8,0.7-1,1.3v6.3
		L142.5,16.6L142.5,16.6z"/>
</g>
</svg>
