<?xml version="1.0" encoding="utf-8"?>
<!-- Generator: Adobe Illustrator 24.3.0, SVG Export Plug-In . SVG Version: 6.00 Build 0)  -->
<svg version="1.1"
	 id="svg3077" xmlns:cc="http://creativecommons.org/ns#" xmlns:dc="http://purl.org/dc/elements/1.1/" xmlns:rdf="http://www.w3.org/1999/02/22-rdf-syntax-ns#"
	 xmlns="http://www.w3.org/2000/svg" xmlns:xlink="http://www.w3.org/1999/xlink" x="0px" y="0px" viewBox="0 0 180 30"
	 style="enable-background:new 0 0 180 30;" xml:space="preserve">
<style type="text/css">
	.st0{fill:#F7F7F7;}
	.st1{fill:#7767D8;}
	.st2{fill:#F99D27;}
	.st3{fill:#2D0E75;}
</style>
<g>
	<g>
		<circle class="st0" cx="40.3" cy="16" r="10.6"/>
		<g>
			<path class="st1" d="M55.3,16c0-8.3-6.7-14.9-14.9-14.9c-3.1,0-6,1-8.4,2.6l2.3,3.7c1.7-1.2,3.8-1.9,6.1-1.9
				c5.8,0,10.6,4.7,10.6,10.6c0,4-2.2,7.5-5.5,9.3l2.3,3.7C52.2,26.4,55.3,21.6,55.3,16z"/>
		</g>
		<rect x="35.6" y="10.3" class="st2" width="1.6" height="1.6"/>
		<rect x="39.3" y="10.3" class="st2" width="1.6" height="1.6"/>
		<rect x="43" y="10.3" class="st2" width="1.6" height="1.6"/>
		<rect x="37.2" y="16.9" transform="matrix(0.4576 -0.8892 0.8892 0.4576 6.0113 44.9538)" class="st3" width="5.3" height="1.4"/>
		<polygon class="st3" points="47.7,17.6 47.7,17.6 44.5,14.3 43.5,15.4 45.7,17.6 43.5,19.8 44.5,20.8 47.7,17.6 		"/>
		<polygon class="st2" points="32,17.6 32,17.6 35.3,14.3 36.3,15.4 34.1,17.6 36.3,19.8 35.3,20.8 		"/>
	</g>
	<g>
		<path class="st1" d="M64.5,19.8c0.5,0,0.8-0.1,1.3-0.3c0.4-0.2,0.7-0.4,1-0.8l0.8,0.8c-0.4,0.4-0.8,0.7-1.4,1
			c-0.5,0.2-1.1,0.4-1.7,0.4c-0.6,0-1.1-0.1-1.6-0.3c-0.5-0.2-0.9-0.5-1.3-0.8c-0.4-0.4-0.6-0.8-0.8-1.3c-0.2-0.5-0.3-1-0.3-1.6
			c0-0.6,0.1-1.1,0.3-1.6c0.2-0.5,0.5-0.9,0.8-1.3c0.4-0.4,0.8-0.6,1.3-0.8c0.5-0.2,1-0.3,1.6-0.3c0.6,0,1.2,0.1,1.7,0.4
			c0.6,0.2,1,0.6,1.4,1l-0.8,0.8c-0.3-0.3-0.6-0.6-1-0.8S64.9,14,64.5,14c-0.4,0-0.8,0.1-1.1,0.2c-0.4,0.2-0.7,0.4-0.9,0.6
			c-0.3,0.3-0.5,0.6-0.6,0.9c-0.2,0.4-0.2,0.7-0.2,1.1c0,0.4,0.1,0.8,0.2,1.1s0.4,0.7,0.6,0.9s0.6,0.5,0.9,0.6
			C63.7,19.7,64.1,19.8,64.5,19.8z"/>
		<path class="st1" d="M68.8,20.7V13h1.1v3.3H74V13h1.1v7.7H74v-3.4h-4.1v3.4H68.8L68.8,20.7z"/>
		<path class="st1" d="M76.8,20.7V13h1.1v7.7H76.8L76.8,20.7z"/>
		<path class="st1" d="M83.5,20.2l-2.9-5.7v6.3h-1.1V13h1.5l2.4,4.9l2.4-4.9h1.5v7.7h-1.1v-6.3L83.5,20.2z"/>
		<path class="st1" d="M89.1,20.7V13h5.7v1h-4.5v2.3h3v1h-3v2.4h4.6v1L89.1,20.7L89.1,20.7z"/>
		<path class="st1" d="M102.6,20.7v-0.5c-0.2,0.2-0.5,0.4-0.8,0.5c-0.3,0.1-0.6,0.2-0.9,0.2c-0.4,0-0.8-0.1-1.1-0.2
			c-0.4-0.2-0.6-0.4-0.9-0.6c-0.3-0.3-0.5-0.6-0.6-0.9c-0.2-0.4-0.2-0.7-0.2-1.1c0-0.4,0.1-0.8,0.2-1.1c0.2-0.4,0.4-0.7,0.6-0.9
			c0.3-0.3,0.6-0.5,0.9-0.6c0.4-0.2,0.7-0.2,1.1-0.2c0.3,0,0.6,0,0.9,0.1c0.3,0.1,0.5,0.2,0.8,0.4V13l1.1-0.2v7.9L102.6,20.7
			L102.6,20.7z M99.1,17.9c0,0.5,0.2,1,0.5,1.4s0.8,0.6,1.4,0.6c0.3,0,0.6-0.1,0.9-0.2s0.5-0.3,0.7-0.5v-2.5
			c-0.2-0.2-0.4-0.4-0.7-0.5c-0.3-0.1-0.6-0.2-0.9-0.2c-0.5,0-1,0.2-1.4,0.5C99.3,16.9,99.1,17.3,99.1,17.9z"/>
		<path class="st1" d="M109.9,20.1c-0.3,0.3-0.7,0.4-1,0.6c-0.4,0.1-0.7,0.2-1.1,0.2c-0.4,0-0.8-0.1-1.1-0.2
			c-0.4-0.2-0.7-0.4-0.9-0.6c-0.3-0.3-0.5-0.6-0.6-0.9c-0.2-0.4-0.2-0.7-0.2-1.1c0-0.4,0.1-0.8,0.2-1.1c0.2-0.4,0.4-0.7,0.6-0.9
			c0.3-0.2,0.5-0.5,0.9-0.6c0.4-0.2,0.7-0.2,1.1-0.2s0.7,0.1,1.1,0.2c0.3,0.2,0.6,0.4,0.8,0.6c0.2,0.3,0.4,0.6,0.6,0.9
			c0.1,0.4,0.2,0.7,0.2,1.1v0.3h-4.4c0.1,0.5,0.3,0.8,0.6,1.1c0.4,0.3,0.8,0.5,1.3,0.5c0.3,0,0.5,0,0.8-0.1c0.3-0.1,0.5-0.2,0.6-0.4
			L109.9,20.1z M107.6,16c-0.4,0-0.8,0.1-1.1,0.4c-0.3,0.3-0.5,0.6-0.6,1.1h3.3c-0.1-0.4-0.3-0.8-0.6-1.1
			C108.3,16.1,108,16,107.6,16z"/>
		<path class="st1" d="M113,20.7l-2.4-5.6h1.2l1.7,4.2l1.7-4.2h1.2l-2.4,5.6H113z"/>
		<path class="st1" d="M121.8,20.1c-0.3,0.3-0.7,0.4-1,0.6c-0.4,0.1-0.7,0.2-1.1,0.2s-0.8-0.1-1.1-0.2c-0.4-0.2-0.7-0.4-0.9-0.6
			c-0.3-0.3-0.5-0.6-0.6-0.9c-0.2-0.4-0.2-0.7-0.2-1.1c0-0.4,0.1-0.8,0.2-1.1c0.2-0.4,0.4-0.7,0.6-0.9c0.3-0.2,0.5-0.5,0.9-0.6
			c0.4-0.2,0.7-0.2,1.1-0.2c0.4,0,0.7,0.1,1.1,0.2c0.3,0.2,0.6,0.4,0.8,0.6c0.2,0.3,0.4,0.6,0.6,0.9c0.1,0.4,0.2,0.7,0.2,1.1v0.3
			h-4.4c0.1,0.5,0.3,0.8,0.6,1.1c0.4,0.3,0.8,0.5,1.3,0.5c0.3,0,0.5,0,0.8-0.1c0.3-0.1,0.5-0.2,0.6-0.4L121.8,20.1z M119.5,16
			c-0.4,0-0.8,0.1-1.1,0.4c-0.3,0.3-0.5,0.6-0.6,1.1h3.3c-0.1-0.4-0.3-0.8-0.6-1.1C120.3,16.1,119.9,16,119.5,16z"/>
		<path class="st1" d="M124.4,12.8v7.9h-1.1V13L124.4,12.8z"/>
		<path class="st1" d="M125.5,17.9c0-0.4,0.1-0.8,0.2-1.1c0.2-0.4,0.4-0.7,0.6-0.9c0.3-0.3,0.6-0.5,0.9-0.6c0.4-0.2,0.7-0.2,1.1-0.2
			c0.4,0,0.8,0.1,1.1,0.2c0.4,0.2,0.7,0.4,0.9,0.6c0.3,0.3,0.5,0.6,0.6,0.9c0.1,0.4,0.2,0.8,0.2,1.1c0,0.4-0.1,0.8-0.2,1.1
			c-0.2,0.4-0.4,0.7-0.6,0.9c-0.3,0.3-0.6,0.5-0.9,0.6c-0.4,0.2-0.7,0.2-1.1,0.2s-0.8-0.1-1.1-0.2c-0.4-0.2-0.7-0.4-0.9-0.6
			c-0.3-0.3-0.5-0.6-0.6-0.9C125.6,18.7,125.5,18.3,125.5,17.9z M128.4,19.9c0.5,0,0.9-0.2,1.3-0.6s0.5-0.8,0.5-1.4
			c0-0.5-0.2-1-0.5-1.4c-0.4-0.4-0.8-0.6-1.3-0.6c-0.5,0-0.9,0.2-1.3,0.6c-0.4,0.4-0.5,0.8-0.5,1.4c0,0.5,0.2,1,0.5,1.4
			C127.5,19.7,127.9,19.9,128.4,19.9z"/>
		<path class="st1" d="M132.4,23v-7.9h1.1v0.5c0.2-0.2,0.5-0.4,0.8-0.5c0.3-0.1,0.6-0.2,0.9-0.2c0.4,0,0.8,0.1,1.1,0.2
			c0.4,0.2,0.6,0.4,0.9,0.6c0.3,0.3,0.5,0.6,0.6,0.9c0.2,0.4,0.2,0.7,0.2,1.1c0,0.4-0.1,0.8-0.2,1.1c-0.1,0.4-0.4,0.7-0.6,0.9
			c-0.3,0.3-0.6,0.5-0.9,0.6c-0.4,0.2-0.7,0.2-1.1,0.2c-0.3,0-0.6,0-0.9-0.1c-0.3-0.1-0.6-0.2-0.8-0.4V23L132.4,23L132.4,23z
			 M135.1,16c-0.3,0-0.6,0.1-0.9,0.2c-0.3,0.1-0.5,0.3-0.7,0.5v2.5c0.2,0.2,0.4,0.4,0.7,0.5c0.3,0.1,0.6,0.2,0.9,0.2
			c0.5,0,1-0.2,1.4-0.5c0.4-0.4,0.5-0.8,0.5-1.4c0-0.6-0.2-1-0.5-1.4C136.1,16.2,135.6,16,135.1,16z"/>
		<path class="st1" d="M144.1,20.1c-0.3,0.3-0.7,0.4-1,0.6c-0.4,0.1-0.7,0.2-1.1,0.2s-0.8-0.1-1.1-0.2c-0.4-0.2-0.7-0.4-0.9-0.6
			c-0.3-0.3-0.5-0.6-0.6-0.9c-0.2-0.4-0.2-0.7-0.2-1.1c0-0.4,0.1-0.8,0.2-1.1c0.2-0.4,0.4-0.7,0.6-0.9c0.3-0.2,0.5-0.5,0.9-0.6
			c0.4-0.2,0.7-0.2,1.1-0.2s0.7,0.1,1.1,0.2c0.3,0.2,0.6,0.4,0.8,0.6c0.2,0.3,0.4,0.6,0.6,0.9s0.2,0.7,0.2,1.1v0.3h-4.4
			c0.1,0.5,0.3,0.8,0.6,1.1c0.4,0.3,0.8,0.5,1.3,0.5c0.3,0,0.5,0,0.8-0.1c0.3-0.1,0.5-0.2,0.6-0.4L144.1,20.1z M141.7,16
			c-0.4,0-0.8,0.1-1.1,0.4c-0.3,0.3-0.5,0.6-0.6,1.1h3.3c-0.1-0.4-0.3-0.8-0.6-1.1C142.5,16.1,142.1,16,141.7,16z"/>
		<path class="st1" d="M145.5,20.7v-5.6h1.1v0.7c0.2-0.3,0.4-0.5,0.6-0.6c0.3-0.1,0.6-0.2,0.9-0.2c0.1,0,0.2,0,0.3,0
			c0.1,0,0.2,0,0.3,0.1v1c-0.1,0-0.2-0.1-0.3-0.1c-0.1,0-0.2,0-0.3,0c-0.3,0-0.6,0.1-0.9,0.3c-0.3,0.2-0.5,0.4-0.6,0.8v3.8
			L145.5,20.7L145.5,20.7z"/>
	</g>
</g>
</svg>
