<?xml version="1.0" encoding="utf-8"?>
<!-- Generator: Adobe Illustrator 24.3.0, SVG Export Plug-In . SVG Version: 6.00 Build 0)  -->
<svg version="1.1" id="Layer_1" xmlns="http://www.w3.org/2000/svg" xmlns:xlink="http://www.w3.org/1999/xlink" x="0px" y="0px"
	 viewBox="0 0 593.6 150.7" style="enable-background:new 0 0 593.6 150.7;" xml:space="preserve">
<style type="text/css">
	.st0{enable-background:new    ;}
	.st1{fill:#2D0E75;}
</style>
<g class="st0">
	<path class="st1" d="M151.8,94.6c2.3,0,4.4-0.5,6.5-1.4c2.1-0.9,3.8-2.2,5.3-3.9l3.9,4c-1.9,2.1-4.3,3.8-7.1,5
		c-2.8,1.2-5.7,1.9-8.7,1.9c-2.9,0-5.6-0.5-8.2-1.6c-2.5-1.1-4.8-2.5-6.6-4.3c-1.9-1.8-3.3-4-4.4-6.5c-1.1-2.5-1.6-5.2-1.6-8
		c0-2.9,0.5-5.6,1.6-8c1.1-2.5,2.5-4.6,4.4-6.5c1.9-1.8,4.1-3.3,6.6-4.3c2.5-1.1,5.3-1.6,8.2-1.6c3.1,0,6.1,0.6,8.9,1.9
		c2.9,1.2,5.2,2.9,7,5l-4,4.1c-1.5-1.7-3.3-3.1-5.4-4c-2.1-0.9-4.3-1.4-6.6-1.4c-2.1,0-4,0.4-5.8,1.1c-1.8,0.8-3.4,1.8-4.7,3.2
		c-1.3,1.3-2.3,2.9-3.1,4.8c-0.8,1.8-1.1,3.8-1.1,5.9c0,2.1,0.4,4.1,1.1,5.9s1.8,3.4,3.1,4.7c1.3,1.3,2.9,2.4,4.7,3.2
		C147.7,94.2,149.7,94.6,151.8,94.6z"/>
	<path class="st1" d="M173.7,99.5V59.8h5.9v17h21.1v-17h5.9v39.7h-5.9V82.2h-21.1v17.3L173.7,99.5L173.7,99.5z"/>
	<path class="st1" d="M215,99.5V59.8h5.9v39.7L215,99.5L215,99.5z"/>
	<path class="st1" d="M249.7,96.7L235,67.2v32.3h-5.6V59.8h7.9l12.5,25.3l12.4-25.3h7.9v39.7h-5.6V67.1L249.7,96.7z"/>
	<path class="st1" d="M278.5,99.5V59.8h29.3V65h-23.3v11.9h15.3V82h-15.3v12.3H308v5.2H278.5L278.5,99.5z"/>
	<path class="st1" d="M347.9,99.5v-2.7c-1.2,1-2.6,1.8-4.1,2.3c-1.5,0.5-3.1,0.8-4.8,0.8c-2,0-3.9-0.4-5.7-1.2
		c-1.8-0.8-3.3-1.8-4.6-3.2c-1.3-1.3-2.3-2.9-3.1-4.7c-0.8-1.8-1.1-3.8-1.1-5.9s0.4-4,1.1-5.8c0.8-1.8,1.8-3.4,3.1-4.7
		c1.3-1.3,2.9-2.4,4.7-3.2c1.8-0.8,3.7-1.2,5.8-1.2c1.6,0,3.1,0.2,4.6,0.7c1.5,0.5,2.8,1.2,4.1,2.1V59.8l5.7-1.2v40.9L347.9,99.5
		L347.9,99.5z M330,85c0,2.8,0.9,5.2,2.8,7.1c1.9,1.9,4.2,2.9,7,2.9c1.6,0,3.1-0.3,4.5-0.9c1.4-0.6,2.5-1.5,3.5-2.5V78.5
		c-0.9-1.1-2.1-1.9-3.5-2.5c-1.4-0.6-2.9-0.9-4.5-0.9c-2.8,0-5.1,0.9-7,2.8C331,79.8,330,82.1,330,85z"/>
	<path class="st1" d="M385.5,96.2c-1.7,1.3-3.4,2.2-5.2,2.9c-1.8,0.6-3.8,0.9-5.9,0.9c-2.1,0-4.1-0.4-5.9-1.2
		c-1.9-0.8-3.5-1.8-4.8-3.2c-1.4-1.3-2.4-2.9-3.2-4.7c-0.8-1.8-1.2-3.8-1.2-5.9c0-2.1,0.4-4,1.1-5.8c0.8-1.8,1.8-3.4,3.1-4.7
		c1.3-1.3,2.8-2.4,4.6-3.2c1.8-0.8,3.7-1.2,5.7-1.2c2,0,3.8,0.4,5.5,1.2c1.7,0.8,3.2,1.8,4.4,3.2c1.2,1.3,2.2,2.9,2.9,4.8
		c0.7,1.9,1.1,3.8,1.1,5.9v1.6h-22.8c0.4,2.4,1.5,4.4,3.3,5.9c1.8,1.6,4,2.3,6.5,2.3c1.4,0,2.7-0.2,4-0.7c1.3-0.5,2.4-1.1,3.3-1.9
		L385.5,96.2z M373.5,75c-2.2,0-4,0.7-5.6,2.2c-1.6,1.4-2.6,3.3-3,5.6H382c-0.4-2.2-1.4-4-3-5.5C377.4,75.7,375.6,75,373.5,75z"/>
	<path class="st1" d="M401.4,99.5l-12.5-28.8h6.2l9,21.6l9-21.6h6.1l-12.5,28.8H401.4z"/>
	<path class="st1" d="M446.9,96.2c-1.7,1.3-3.4,2.2-5.2,2.9c-1.8,0.6-3.8,0.9-5.9,0.9c-2.1,0-4.1-0.4-5.9-1.2
		c-1.9-0.8-3.5-1.8-4.8-3.2s-2.4-2.9-3.2-4.7c-0.8-1.8-1.2-3.8-1.2-5.9c0-2.1,0.4-4,1.1-5.8c0.8-1.8,1.8-3.4,3.1-4.7
		s2.8-2.4,4.6-3.2c1.8-0.8,3.7-1.2,5.7-1.2c2,0,3.8,0.4,5.5,1.2c1.7,0.8,3.2,1.8,4.4,3.2c1.2,1.3,2.2,2.9,2.9,4.8
		c0.7,1.9,1.1,3.8,1.1,5.9v1.6h-22.8c0.4,2.4,1.5,4.4,3.3,5.9c1.8,1.6,4,2.3,6.5,2.3c1.4,0,2.7-0.2,4-0.7c1.3-0.5,2.4-1.1,3.3-1.9
		L446.9,96.2z M434.9,75c-2.2,0-4,0.7-5.6,2.2c-1.6,1.4-2.6,3.3-3,5.6h17.1c-0.4-2.2-1.4-4-3-5.5C438.9,75.7,437,75,434.9,75z"/>
	<path class="st1" d="M460.4,58.6v40.9h-5.7V59.8L460.4,58.6z"/>
	<path class="st1" d="M466,85c0-2.1,0.4-4,1.2-5.9c0.8-1.8,1.9-3.4,3.2-4.8s2.9-2.4,4.8-3.2c1.8-0.8,3.8-1.2,5.9-1.2
		c2.1,0,4,0.4,5.9,1.2c1.8,0.8,3.4,1.8,4.8,3.2c1.3,1.3,2.4,2.9,3.2,4.8C495.7,81,496,83,496,85c0,2.1-0.4,4.1-1.2,5.9
		c-0.8,1.8-1.8,3.4-3.2,4.8c-1.3,1.3-2.9,2.4-4.8,3.2c-1.8,0.8-3.8,1.2-5.9,1.2c-2.1,0-4-0.4-5.9-1.2c-1.8-0.8-3.4-1.8-4.8-3.2
		c-1.4-1.3-2.4-2.9-3.2-4.8C466.4,89.1,466,87.2,466,85z M481,95.1c2.6,0,4.8-1,6.6-2.9c1.8-1.9,2.8-4.3,2.8-7.1s-0.9-5.2-2.8-7.1
		c-1.8-1.9-4.1-2.9-6.6-2.9c-2.6,0-4.8,1-6.7,2.9c-1.9,1.9-2.8,4.3-2.8,7.1s0.9,5.2,2.8,7.1C476.2,94.1,478.4,95.1,481,95.1z"/>
	<path class="st1" d="M501.7,111.2V70.6h5.6v2.8c1.2-1.1,2.5-1.9,4-2.4c1.5-0.5,3.1-0.8,4.8-0.8c2,0,3.9,0.4,5.7,1.2
		c1.8,0.8,3.3,1.8,4.6,3.2s2.3,2.9,3.1,4.7c0.8,1.8,1.1,3.8,1.1,5.8s-0.4,4-1.1,5.9s-1.8,3.4-3.1,4.7c-1.3,1.3-2.9,2.4-4.7,3.2
		c-1.8,0.8-3.7,1.2-5.8,1.2c-1.6,0-3.1-0.2-4.6-0.7c-1.5-0.5-2.9-1.2-4.1-2.1v14.1L501.7,111.2L501.7,111.2z M515.4,75.1
		c-1.6,0-3.1,0.3-4.5,0.9c-1.4,0.6-2.6,1.5-3.5,2.5v13.1c0.9,1.1,2.1,1.9,3.5,2.5c1.4,0.6,2.9,0.9,4.6,0.9c2.8,0,5.1-0.9,7-2.8
		c1.9-1.9,2.8-4.2,2.8-7.1s-0.9-5.2-2.8-7.1C520.4,76.1,518.1,75.1,515.4,75.1z"/>
	<path class="st1" d="M561.5,96.2c-1.7,1.3-3.4,2.2-5.2,2.9c-1.8,0.6-3.8,0.9-5.9,0.9c-2.1,0-4.1-0.4-5.9-1.2
		c-1.9-0.8-3.5-1.8-4.8-3.2s-2.4-2.9-3.2-4.7c-0.8-1.8-1.2-3.8-1.2-5.9c0-2.1,0.4-4,1.1-5.8c0.8-1.8,1.8-3.4,3.1-4.7
		s2.8-2.4,4.6-3.2c1.8-0.8,3.7-1.2,5.7-1.2c2,0,3.8,0.4,5.5,1.2c1.7,0.8,3.2,1.8,4.4,3.2c1.2,1.3,2.2,2.9,2.9,4.8
		c0.7,1.9,1.1,3.8,1.1,5.9v1.6h-22.8c0.4,2.4,1.5,4.4,3.3,5.9c1.8,1.6,4,2.3,6.5,2.3c1.4,0,2.7-0.2,4-0.7c1.3-0.4,2.4-1.1,3.3-1.9
		L561.5,96.2z M549.5,75c-2.2,0-4,0.7-5.6,2.2c-1.6,1.4-2.6,3.3-3,5.6h17.1c-0.4-2.2-1.4-4-3-5.5C553.4,75.7,551.6,75,549.5,75z"/>
	<path class="st1" d="M569.2,99.5V70.7h5.7v3.7c0.9-1.4,2-2.5,3.3-3.2c1.4-0.7,2.9-1.1,4.6-1.1c0.6,0,1.1,0,1.6,0.1
		c0.5,0.1,0.9,0.2,1.3,0.3v5.1c-0.5-0.2-1.1-0.3-1.6-0.5c-0.6-0.1-1.1-0.2-1.7-0.2c-1.7,0-3.2,0.5-4.5,1.3c-1.3,0.9-2.3,2.2-3,3.9
		v19.3L569.2,99.5L569.2,99.5z"/>
</g>
<image style="overflow:visible;enable-background:new    ;" width="806" height="806" xlink:href="BFB49D9B0000EA0C.png"  transform="matrix(0.1647 0 0 0.1647 -2.6709 8.5694)">
</image>
</svg>
