<?xml version="1.0" encoding="utf-8"?>
<!-- Generator: Adobe Illustrator 24.3.0, SVG Export Plug-In . SVG Version: 6.00 Build 0)  -->
<svg version="1.1"
	 id="svg3077" xmlns:cc="http://creativecommons.org/ns#" xmlns:dc="http://purl.org/dc/elements/1.1/" xmlns:rdf="http://www.w3.org/1999/02/22-rdf-syntax-ns#"
	 xmlns="http://www.w3.org/2000/svg" xmlns:xlink="http://www.w3.org/1999/xlink" x="0px" y="0px" viewBox="0 0 841.9 595.3"
	 style="enable-background:new 0 0 841.9 595.3;" xml:space="preserve">
<style type="text/css">
	.st0{fill:#F7F7F7;}
	.st1{fill:#7767D8;}
	.st2{fill:#F99D27;}
	.st3{fill:#2D0E75;}
	.st4{enable-background:new    ;}
</style>
<g>
	<circle class="st0" cx="74.4" cy="305.5" r="74.6"/>
	<g>
		<path class="st1" d="M180.1,305.5c0-58.3-47.3-105.6-105.6-105.6c-22.1,0-42.6,6.8-59.6,18.4l16.5,26.3
			c12.2-8.6,27-13.7,43.1-13.7c41.2,0,74.6,33.4,74.6,74.6c0,28.2-15.6,52.7-38.7,65.4l16.4,26.3C158.6,379,180.1,344.8,180.1,305.5
			z"/>
	</g>
	<rect x="40.8" y="264.7" class="st2" width="11.4" height="11.4"/>
	<rect x="67" y="264.7" class="st2" width="11.4" height="11.4"/>
	<rect x="93.2" y="264.7" class="st2" width="11.4" height="11.4"/>
	
		<rect x="66.3" y="297.4" transform="matrix(0.8892 0.4576 -0.4576 0.8892 152.5553 2.4944)" class="st3" width="9.7" height="37.6"/>
	<polygon class="st3" points="126.8,316.3 126.8,316.3 104,293.4 96.7,300.7 112.3,316.3 96.7,331.9 104,339.1 126.9,316.3 	"/>
	<polygon class="st2" points="15.9,316.3 15.9,316.3 38.7,293.4 46,300.7 30.4,316.3 46,331.9 38.7,339.1 15.9,316.3 	"/>
</g>
<g class="st4">
	<path class="st3" d="M245.5,331.9c3.2,0,6-0.7,8.9-1.9c2.9-1.2,5.2-3,7.3-5.3l5.3,5.5c-2.6,2.9-5.9,5.2-9.7,6.9
		c-3.8,1.6-7.8,2.6-11.9,2.6c-4,0-7.7-0.7-11.2-2.2c-3.4-1.5-6.6-3.4-9.1-5.9c-2.6-2.5-4.5-5.5-6-8.9c-1.5-3.4-2.2-7.1-2.2-11
		c0-4,0.7-7.7,2.2-11c1.5-3.4,3.4-6.3,6-8.9c2.6-2.5,5.6-4.5,9.1-5.9c3.4-1.5,7.3-2.2,11.2-2.2c4.3,0,8.4,0.8,12.2,2.6
		c4,1.6,7.1,4,9.6,6.9l-5.5,5.6c-2.1-2.3-4.5-4.3-7.4-5.5c-2.9-1.2-5.9-1.9-9.1-1.9c-2.9,0-5.5,0.5-8,1.5c-2.5,1.1-4.7,2.5-6.4,4.4
		c-1.8,1.8-3.2,4-4.3,6.6c-1.1,2.5-1.5,5.2-1.5,8.1c0,2.9,0.5,5.6,1.5,8.1c1,2.5,2.5,4.7,4.3,6.4s4,3.3,6.4,4.4
		C239.8,331.3,242.6,331.9,245.5,331.9z"/>
	<path class="st3" d="M275.5,338.6v-54.5h8.1v23.3h28.9v-23.3h8.1v54.5h-8.1v-23.7h-28.9v23.7H275.5L275.5,338.6z"/>
	<path class="st3" d="M332.2,338.6v-54.5h8.1v54.5H332.2L332.2,338.6z"/>
	<path class="st3" d="M379.8,334.8l-20.2-40.5v44.3h-7.7v-54.5h10.8l17.1,34.7l17-34.7h10.8v54.5h-7.7v-44.4L379.8,334.8z"/>
	<path class="st3" d="M419.3,338.6v-54.5h40.2v7.1h-32v16.3h21v7h-21v16.9h32.2v7.1H419.3L419.3,338.6z"/>
	<path class="st3" d="M514.5,338.6v-3.7c-1.6,1.4-3.6,2.5-5.6,3.2c-2.1,0.7-4.3,1.1-6.6,1.1c-2.7,0-5.3-0.5-7.8-1.6
		c-2.5-1.1-4.5-2.5-6.3-4.4c-1.8-1.8-3.2-4-4.3-6.4c-1.1-2.5-1.5-5.2-1.5-8.1c0-2.9,0.5-5.5,1.5-8c1.1-2.5,2.5-4.7,4.3-6.4
		c1.8-1.8,4-3.3,6.4-4.4c2.5-1.1,5.1-1.6,8-1.6c2.2,0,4.3,0.3,6.3,1c2.1,0.7,3.8,1.6,5.6,2.9v-17.8l7.8-1.6v56.1H514.5L514.5,338.6z
		 M489.9,318.7c0,3.8,1.2,7.1,3.8,9.7c2.6,2.6,5.8,4,9.6,4c2.2,0,4.3-0.4,6.2-1.2s3.4-2.1,4.8-3.4v-18c-1.2-1.5-2.9-2.6-4.8-3.4
		s-4-1.2-6.2-1.2c-3.8,0-7,1.2-9.6,3.8C491.3,311.6,489.9,314.7,489.9,318.7z"/>
	<path class="st3" d="M566,334.1c-2.3,1.8-4.7,3-7.1,4c-2.5,0.8-5.2,1.2-8.1,1.2s-5.6-0.5-8.1-1.6c-2.6-1.1-4.8-2.5-6.6-4.4
		c-1.9-1.8-3.3-4-4.4-6.4c-1.1-2.5-1.6-5.2-1.6-8.1c0-2.9,0.5-5.5,1.5-8c1.1-2.5,2.5-4.7,4.3-6.4s3.8-3.3,6.3-4.4
		c2.5-1.1,5.1-1.6,7.8-1.6c2.7,0,5.2,0.5,7.5,1.6s4.4,2.5,6,4.4c1.6,1.8,3,4,4,6.6c1,2.6,1.5,5.2,1.5,8.1v2.2h-31.3
		c0.5,3.3,2.1,6,4.5,8.1c2.5,2.2,5.5,3.2,8.9,3.2c1.9,0,3.7-0.3,5.5-1c1.8-0.7,3.3-1.5,4.5-2.6L566,334.1z M549.6,305
		c-3,0-5.5,1-7.7,3c-2.2,1.9-3.6,4.5-4.1,7.7h23.5c-0.5-3-1.9-5.5-4.1-7.5C554.9,306,552.5,305,549.6,305z"/>
	<path class="st3" d="M587.9,338.6l-17.1-39.5h8.5l12.3,29.6l12.3-29.6h8.4l-17.1,39.5H587.9z"/>
	<path class="st3" d="M650.3,334.1c-2.3,1.8-4.7,3-7.1,4c-2.5,0.8-5.2,1.2-8.1,1.2s-5.6-0.5-8.1-1.6c-2.6-1.1-4.8-2.5-6.6-4.4
		c-1.8-1.9-3.3-4-4.4-6.4c-1.1-2.5-1.6-5.2-1.6-8.1c0-2.9,0.5-5.5,1.5-8c1.1-2.5,2.5-4.7,4.3-6.4s3.8-3.3,6.3-4.4
		c2.5-1.1,5.1-1.6,7.8-1.6c2.7,0,5.2,0.5,7.5,1.6s4.4,2.5,6,4.4c1.6,1.8,3,4,4,6.6c1,2.6,1.5,5.2,1.5,8.1v2.2H622
		c0.5,3.3,2.1,6,4.5,8.1c2.5,2.2,5.5,3.2,8.9,3.2c1.9,0,3.7-0.3,5.5-1c1.8-0.7,3.3-1.5,4.5-2.6L650.3,334.1z M633.8,305
		c-3,0-5.5,1-7.7,3c-2.2,1.9-3.6,4.5-4.1,7.7h23.5c-0.5-3-1.9-5.5-4.1-7.5C639.3,306,636.7,305,633.8,305z"/>
	<path class="st3" d="M668.8,282.5v56.1H661v-54.5L668.8,282.5z"/>
	<path class="st3" d="M676.5,318.7c0-2.9,0.5-5.5,1.6-8.1c1.1-2.5,2.6-4.7,4.4-6.6c1.8-1.9,4-3.3,6.6-4.4c2.5-1.1,5.2-1.6,8.1-1.6
		c2.9,0,5.5,0.5,8.1,1.6c2.5,1.1,4.7,2.5,6.6,4.4c1.8,1.8,3.3,4,4.4,6.6c1,2.6,1.4,5.3,1.4,8.1c0,2.9-0.5,5.6-1.6,8.1
		c-1.1,2.5-2.5,4.7-4.4,6.6c-1.8,1.8-4,3.3-6.6,4.4c-2.5,1.1-5.2,1.6-8.1,1.6s-5.5-0.5-8.1-1.6c-2.5-1.1-4.7-2.5-6.6-4.4
		c-1.9-1.8-3.3-4-4.4-6.6C677,324.3,676.5,321.7,676.5,318.7z M697,332.6c3.6,0,6.6-1.4,9.1-4c2.5-2.6,3.8-5.9,3.8-9.7
		c0-3.8-1.2-7.1-3.8-9.7c-2.5-2.6-5.6-4-9.1-4c-3.6,0-6.6,1.4-9.2,4c-2.6,2.6-3.8,5.9-3.8,9.7c0,3.8,1.2,7.1,3.8,9.7
		C690.5,331.2,693.5,332.6,697,332.6z"/>
	<path class="st3" d="M725.4,354.7V299h7.7v3.8c1.6-1.5,3.4-2.6,5.5-3.3s4.3-1.1,6.6-1.1c2.7,0,5.3,0.5,7.8,1.6s4.5,2.5,6.3,4.4
		c1.8,1.9,3.2,4,4.3,6.4c1.1,2.5,1.5,5.2,1.5,8c0,2.7-0.5,5.5-1.5,8.1c-1,2.6-2.5,4.7-4.3,6.4c-1.8,1.8-4,3.3-6.4,4.4
		c-2.5,1.1-5.1,1.6-8,1.6c-2.2,0-4.3-0.3-6.3-1c-2.1-0.7-4-1.6-5.6-2.9v19.3L725.4,354.7L725.4,354.7z M744.2,305.1
		c-2.2,0-4.3,0.4-6.2,1.2s-3.6,2.1-4.8,3.4v18c1.2,1.5,2.9,2.6,4.8,3.4s4,1.2,6.3,1.2c3.8,0,7-1.2,9.6-3.8c2.6-2.6,3.8-5.8,3.8-9.7
		c0-4-1.2-7.1-3.8-9.7C751.1,306.5,747.9,305.1,744.2,305.1z"/>
	<path class="st3" d="M807.5,334.1c-2.3,1.8-4.7,3-7.1,4c-2.5,0.8-5.2,1.2-8.1,1.2c-2.9,0-5.6-0.5-8.1-1.6c-2.6-1.1-4.8-2.5-6.6-4.4
		c-1.8-1.9-3.3-4-4.4-6.4c-1.1-2.5-1.6-5.2-1.6-8.1c0-2.9,0.5-5.5,1.5-8c1.1-2.5,2.5-4.7,4.3-6.4s3.8-3.3,6.3-4.4
		c2.5-1.1,5.1-1.6,7.8-1.6c2.7,0,5.2,0.5,7.5,1.6s4.4,2.5,6,4.4c1.6,1.8,3,4,4,6.6c1,2.6,1.5,5.2,1.5,8.1v2.2h-31.3
		c0.5,3.3,2.1,6,4.5,8.1c2.5,2.2,5.5,3.2,8.9,3.2c1.9,0,3.7-0.3,5.5-1c1.8-0.5,3.3-1.5,4.5-2.6L807.5,334.1z M791,305
		c-3,0-5.5,1-7.7,3c-2.2,1.9-3.6,4.5-4.1,7.7h23.5c-0.5-3-1.9-5.5-4.1-7.5C796.4,306,793.9,305,791,305z"/>
	<path class="st3" d="M818,338.6v-39.5h7.8v5.1c1.2-1.9,2.7-3.4,4.5-4.4c1.9-1,4-1.5,6.3-1.5c0.8,0,1.5,0,2.2,0.1
		c0.7,0.1,1.2,0.3,1.8,0.4v7c-0.7-0.3-1.5-0.4-2.2-0.7c-0.8-0.1-1.5-0.3-2.3-0.3c-2.3,0-4.4,0.7-6.2,1.8c-1.8,1.2-3.2,3-4.1,5.3
		v26.5L818,338.6L818,338.6z"/>
</g>
</svg>
