<?xml version="1.0" encoding="utf-8"?>
<!-- Generator: Adobe Illustrator 24.3.0, SVG Export Plug-In . SVG Version: 6.00 Build 0)  -->
<svg version="1.1"
	 id="Layer_1" xmlns:cc="http://creativecommons.org/ns#" xmlns:dc="http://purl.org/dc/elements/1.1/" xmlns:rdf="http://www.w3.org/1999/02/22-rdf-syntax-ns#"
	 xmlns="http://www.w3.org/2000/svg" xmlns:xlink="http://www.w3.org/1999/xlink" x="0px" y="0px" viewBox="0 0 24 24"
	 style="enable-background:new 0 0 24 24;" xml:space="preserve">
<style type="text/css">
	.st0{fill:#8E9396;}
	.st1{fill:#5E052C;}
	.st2{fill:#544D9D;}
	.st3{fill:#4E54A0;}
	.st4{fill:#442665;}
	.st5{fill:#B53863;}
</style>
<g>
	<g>
		<path class="st0" d="M8.2,3.9c0-1.3,1.1-2.4,2.4-2.4c1.2,0,2.2,0.9,2.4,2.1c0.4-0.1,0.8-0.2,1.1-0.3c-0.3-1.7-1.7-3-3.5-3
			C8.6,0.3,7,1.9,7,3.9c0,1.5,0.9,2.7,2.1,3.3c0.2-0.4,0.3-0.7,0.6-1C8.8,5.8,8.2,4.9,8.2,3.9z"/>
		<path class="st0" d="M11.1,6.3c-0.3,0.4-0.6,0.8-0.8,1.2c0.1,0,0.2,0,0.3,0c1.7,0,3.2-1.3,3.5-2.9c-0.5,0.1-0.9,0.2-1.4,0.4
			C12.4,5.7,11.8,6.1,11.1,6.3z"/>
	</g>
	<g>
		<path class="st1" d="M14.1,3.4c-0.4,0-0.8,0.1-1.1,0.3c0,0.1,0,0.2,0,0.3c0,0.4-0.1,0.8-0.3,1.1c0.4-0.2,0.9-0.4,1.4-0.4
			c0-0.2,0.1-0.4,0.1-0.7C14.2,3.8,14.1,3.6,14.1,3.4z"/>
		<path class="st1" d="M9.7,6.2c-0.2,0.3-0.4,0.7-0.6,1c0.4,0.2,0.7,0.3,1.2,0.3c0.2-0.4,0.5-0.8,0.8-1.2c-0.2,0-0.3,0.1-0.5,0.1
			C10.3,6.3,10,6.3,9.7,6.2z"/>
	</g>
	<g>
		<path class="st2" d="M17.5,16.2c-0.2,0-0.3,0-0.4-0.1c-0.1,3.5-3,6.3-6.5,6.3C7,22.4,4,19.5,4,15.9c0-2.9,1.9-5.4,4.6-6.2v0
			c0-0.4,0-0.8,0.1-1.2c-3.4,0.8-5.9,3.8-5.9,7.5c0,4.2,3.5,7.7,7.7,7.7c4.2,0,7.6-3.4,7.7-7.6C18.1,16.1,17.8,16.2,17.5,16.2z"/>
		<path class="st3" d="M16.6,13.2c0.3-0.2,0.6-0.3,1-0.3c0.1,0,0.1,0,0.2,0c-1.2-2.8-3.9-4.7-7.1-4.7c-0.2,0-0.4,0-0.5,0
			C10,8.5,9.9,8.9,9.9,9.4c0.2,0,0.5,0,0.7,0C13.3,9.3,15.5,10.9,16.6,13.2z"/>
	</g>
	<g>
		<path class="st4" d="M8.7,9.6L8.7,9.6C9,9.5,9.4,9.4,9.8,9.4C9.8,9,9.9,8.6,10,8.2c-0.4,0-0.8,0.1-1.3,0.2
			C8.7,8.8,8.7,9.2,8.7,9.6z"/>
		<path class="st4" d="M18.2,14.8c-0.1-0.4-0.1-0.8-0.3-1.2c-0.1-0.2-0.2-0.5-0.2-0.7c-0.1,0-0.1,0-0.2,0c-0.4,0-0.7,0.1-1,0.3
			c0.1,0.3,0.3,0.6,0.3,1c0.1,0.4,0.2,0.8,0.2,1.2c0,0.2,0,0.3,0,0.5c0,0.1,0,0.2,0,0.3c0.1,0,0.3,0.1,0.4,0.1
			c0.3,0,0.5-0.1,0.7-0.2c0,0,0-0.1,0-0.1C18.3,15.5,18.3,15.1,18.2,14.8z"/>
	</g>
	<g>
		<path class="st5" d="M10.3,7.5c-0.4,0-0.8-0.1-1.2-0.3C9,7.6,8.9,8,8.8,8.4C9.2,8.3,9.6,8.2,10,8.2C10.1,7.9,10.2,7.7,10.3,7.5z"
			/>
		<path class="st5" d="M11.1,6.3c0.5-0.5,1-1,1.6-1.3C12.9,4.7,13,4.3,13,3.9c0-0.1,0-0.2,0-0.3C11.6,4.1,10.4,5,9.7,6.1
			c0.3,0.1,0.6,0.2,0.9,0.2C10.8,6.3,10.9,6.3,11.1,6.3z"/>
		<path class="st5" d="M16.9,14.2c-0.1-0.3-0.2-0.7-0.3-1c-0.4,0.3-0.7,0.8-0.7,1.3c-0.3,0.1-0.7,0.1-1,0.1c-2.8,0-5-2.3-5-5
			c0-0.1,0-0.1,0-0.2c-0.4,0-0.8,0.1-1.2,0.2c0,3.4,2.8,6.2,6.2,6.2c0.5,0,1-0.1,1.4-0.2c0.2,0.2,0.5,0.4,0.8,0.5c0-0.1,0-0.2,0-0.3
			c0-0.2,0-0.3,0-0.5C17.1,15,17,14.6,16.9,14.2z"/>
		<path class="st5" d="M21.1,9.6c0-3.4-2.8-6.2-6.2-6.2c-0.3,0-0.5,0-0.8,0.1c0,0.2,0,0.4,0,0.5c0,0.2,0,0.4-0.1,0.7
			c0.3,0,0.5-0.1,0.8-0.1c2.8,0,5,2.3,5,5c0,1.4-0.6,2.7-1.5,3.6c-0.2-0.1-0.5-0.2-0.7-0.3c0.1,0.2,0.2,0.4,0.2,0.7
			c0.1,0.4,0.2,0.8,0.3,1.2c0,0.3,0.1,0.7,0.1,1c0,0,0,0.1,0,0.1c0.5-0.3,0.9-0.8,0.9-1.5c0-0.2,0-0.3-0.1-0.4
			C20.3,13,21.1,11.4,21.1,9.6z"/>
	</g>
</g>
</svg>
